<svg width="313" height="65" viewBox="0 0 313 65" fill="none" xmlns="http://www.w3.org/2000/svg">
<path d="M164.233 11.8546V0.00928202H129.71L124.026 39.5667L118.411 0.00928202H105.961L107.352 10.5721C105.917 7.86491 100.822 0.00928202 89.6043 0.00928202C89.5298 0.00464104 77.1394 0.00928202 77.1394 0.00928202L77.0879 57.6673L68.0155 0.00928202L51.7083 0.00464101L42.3213 59.7445L42.3265 0.00928202H26.7169L21.0918 33.5666L15.612 0.00928202H0V64.9567H12.2949V33.6517L17.8882 64.9567H24.4234L29.9378 33.6517V64.9567H53.6381L55.0713 54.967H64.613L66.0462 64.9567L89.3167 64.971H89.3336V64.9567H89.3626V43.8774L92.2121 43.4813L98.1176 64.971H110.155L110.15 64.9567H110.184L102.435 39.7755C106.359 36.999 110.794 29.9602 109.614 23.2235V23.2211C109.628 23.3085 116.93 65 116.93 65L131.244 64.9575L141.023 6.09322V64.9575H164.232V53.278H153.217V38.3855H164.232V26.5278H153.217V11.8546H164.233ZM56.5194 44.6706L59.8977 16.9013L63.3981 44.6706H56.5194ZM92.2515 31.8479C91.3074 32.2823 90.3245 32.4996 89.3626 32.5019V11.6137C89.3775 11.6137 89.4001 11.6113 89.4242 11.6113C90.3829 11.6044 97.5621 11.8875 97.5621 21.941C97.5621 27.2 95.1211 30.5168 92.2515 31.8479ZM189 53.2672V64.9424H166.357V0H178.55V53.2672H189Z" fill="#F0141E"/>
<path d="M210.452 26.8298C211.452 26.8298 212.33 27.002 213.086 27.3466C213.842 27.6911 214.486 28.2024 215.02 28.8804L213.736 30.3642C213.28 29.7863 212.78 29.3639 212.236 29.0972C211.702 28.8193 211.08 28.6804 210.368 28.6804C209.902 28.6804 209.513 28.7415 209.201 28.8637C208.901 28.986 208.679 29.1472 208.534 29.3472C208.401 29.5473 208.334 29.7696 208.334 30.0141C208.334 30.3142 208.451 30.5698 208.685 30.781C208.918 30.9811 209.318 31.1478 209.885 31.2812L211.936 31.748C213.025 31.9925 213.803 32.3593 214.27 32.8484C214.748 33.3263 214.987 33.9487 214.987 34.7156C214.987 35.4381 214.798 36.0605 214.42 36.5829C214.042 37.0942 213.514 37.4887 212.836 37.7666C212.158 38.0333 211.38 38.1667 210.502 38.1667C209.735 38.1667 209.029 38.0778 208.384 37.9C207.751 37.711 207.184 37.4554 206.684 37.1331C206.184 36.8107 205.767 36.4384 205.433 36.016L206.734 34.4655C206.99 34.8212 207.306 35.138 207.684 35.4158C208.062 35.6937 208.49 35.916 208.968 36.0827C209.457 36.2383 209.968 36.3161 210.502 36.3161C210.957 36.3161 211.341 36.2661 211.652 36.1661C211.974 36.0549 212.213 35.9049 212.369 35.7159C212.536 35.5159 212.619 35.2769 212.619 34.999C212.619 34.7101 212.519 34.4655 212.319 34.2655C212.13 34.0543 211.774 33.8931 211.252 33.782L209.018 33.2818C208.373 33.1262 207.818 32.9262 207.351 32.6816C206.895 32.426 206.545 32.1037 206.3 31.7147C206.067 31.3145 205.95 30.8422 205.95 30.2975C205.95 29.6418 206.128 29.0527 206.484 28.5303C206.839 28.0079 207.351 27.5967 208.018 27.2966C208.696 26.9854 209.507 26.8298 210.452 26.8298ZM220.798 38.1667C219.92 38.1667 219.153 37.9944 218.497 37.6499C217.852 37.3053 217.352 36.8107 216.996 36.1661C216.641 35.5214 216.463 34.7434 216.463 33.832C216.463 32.9206 216.641 32.1426 216.996 31.4979C217.352 30.8533 217.847 30.3587 218.48 30.0141C219.125 29.6696 219.858 29.4973 220.681 29.4973C221.526 29.4973 222.243 29.6696 222.832 30.0141C223.421 30.3476 223.871 30.8088 224.182 31.3979C224.493 31.9759 224.649 32.6372 224.649 33.3819C224.649 33.6041 224.643 33.8153 224.632 34.0154C224.621 34.2155 224.604 34.3933 224.582 34.5489H217.93V32.9651H223.582L222.482 33.3652C222.482 32.665 222.32 32.1259 221.998 31.748C221.687 31.3701 221.242 31.1812 220.664 31.1812C220.242 31.1812 219.875 31.2812 219.564 31.4812C219.264 31.6813 219.036 31.9814 218.88 32.3815C218.725 32.7705 218.647 33.2652 218.647 33.8653C218.647 34.4544 218.73 34.9435 218.897 35.3325C219.075 35.7104 219.319 35.9938 219.631 36.1828C219.953 36.3717 220.336 36.4662 220.781 36.4662C221.27 36.4662 221.665 36.3717 221.965 36.1828C222.265 35.9938 222.498 35.7326 222.665 35.3992L224.482 36.0994C224.304 36.5329 224.032 36.9052 223.665 37.2164C223.31 37.5276 222.882 37.7666 222.381 37.9333C221.892 38.0889 221.364 38.1667 220.798 38.1667ZM231.336 32.6816C231.336 32.2037 231.197 31.8314 230.919 31.5646C230.652 31.2979 230.297 31.1645 229.852 31.1645C229.441 31.1645 229.08 31.2701 228.769 31.4812C228.457 31.6924 228.229 32.0425 228.085 32.5316L226.134 31.9314C226.323 31.1978 226.735 30.6087 227.368 30.1642C228.013 29.7196 228.874 29.4973 229.952 29.4973C230.686 29.4973 231.325 29.614 231.87 29.8474C232.414 30.0697 232.837 30.4087 233.137 30.8644C233.448 31.3201 233.603 31.8925 233.603 32.5816V35.966C233.603 36.3884 233.803 36.5996 234.204 36.5996C234.393 36.5996 234.57 36.5718 234.737 36.5162L234.604 37.9333C234.315 38.0778 233.954 38.15 233.52 38.15C233.131 38.15 232.781 38.0834 232.47 37.95C232.159 37.8166 231.914 37.6165 231.736 37.3498C231.558 37.0719 231.469 36.7274 231.469 36.3161V36.2494L231.87 36.1828C231.803 36.6051 231.619 36.9663 231.319 37.2664C231.019 37.5554 230.652 37.7777 230.219 37.9333C229.797 38.0889 229.358 38.1667 228.902 38.1667C228.335 38.1667 227.846 38.0834 227.435 37.9166C227.024 37.7388 226.707 37.4832 226.484 37.1497C226.262 36.8163 226.151 36.405 226.151 35.916C226.151 35.2936 226.351 34.7879 226.751 34.3988C227.151 33.9987 227.724 33.7264 228.468 33.5819L231.603 32.9484L231.586 34.3655L229.585 34.7656C229.208 34.8434 228.919 34.949 228.719 35.0824C228.53 35.2047 228.435 35.4103 228.435 35.6993C228.435 35.9771 228.535 36.1883 228.735 36.3328C228.946 36.4773 229.196 36.5495 229.485 36.5495C229.719 36.5495 229.947 36.5217 230.169 36.4662C230.391 36.4106 230.591 36.3217 230.769 36.1994C230.947 36.0772 231.086 35.9104 231.186 35.6993C231.286 35.4881 231.336 35.2324 231.336 34.9324V32.6816ZM236.158 38V29.664H238.142L238.292 31.2979C238.514 30.7199 238.837 30.2753 239.259 29.9641C239.692 29.6529 240.231 29.4973 240.876 29.4973C241.065 29.4973 241.237 29.514 241.393 29.5473C241.548 29.5806 241.676 29.6251 241.776 29.6807L241.51 31.598C241.398 31.5535 241.26 31.5201 241.093 31.4979C240.937 31.4757 240.732 31.4646 240.476 31.4646C240.142 31.4646 239.82 31.5479 239.509 31.7147C239.198 31.8703 238.942 32.1148 238.742 32.4482C238.542 32.7705 238.442 33.1818 238.442 33.682V38H236.158ZM246.813 29.4973C247.558 29.4973 248.186 29.6084 248.697 29.8307C249.219 30.0419 249.636 30.3364 249.947 30.7143C250.27 31.0811 250.498 31.4924 250.631 31.9481L248.497 32.715C248.386 32.2148 248.197 31.8369 247.93 31.5813C247.663 31.3256 247.302 31.1978 246.846 31.1978C246.424 31.1978 246.063 31.2979 245.763 31.4979C245.463 31.6869 245.235 31.9814 245.079 32.3815C244.924 32.7705 244.846 33.2596 244.846 33.8487C244.846 34.4377 244.924 34.9268 245.079 35.3158C245.246 35.7048 245.479 35.9938 245.779 36.1828C246.091 36.3717 246.452 36.4662 246.863 36.4662C247.197 36.4662 247.48 36.4106 247.713 36.2995C247.947 36.1772 248.136 36.0049 248.28 35.7826C248.436 35.5603 248.541 35.2936 248.597 34.9824L250.664 35.6492C250.542 36.1494 250.314 36.5884 249.981 36.9663C249.647 37.3442 249.219 37.6388 248.697 37.85C248.175 38.0611 247.569 38.1667 246.88 38.1667C246.024 38.1667 245.268 37.9944 244.612 37.6499C243.957 37.3053 243.451 36.8107 243.095 36.1661C242.74 35.5214 242.562 34.7434 242.562 33.832C242.562 32.9206 242.74 32.1426 243.095 31.4979C243.451 30.8533 243.951 30.3587 244.596 30.0141C245.24 29.6696 245.98 29.4973 246.813 29.4973ZM252.439 38V26.0128H254.723V31.0811C254.99 30.5476 255.357 30.153 255.824 29.8974C256.29 29.6307 256.818 29.4973 257.407 29.4973C257.985 29.4973 258.497 29.6084 258.941 29.8307C259.397 30.053 259.753 30.392 260.008 30.8477C260.275 31.2923 260.408 31.8536 260.408 32.5316V38H258.124V33.1985C258.124 32.476 257.985 31.9814 257.707 31.7147C257.43 31.4368 257.074 31.2979 256.64 31.2979C256.318 31.2979 256.007 31.3757 255.707 31.5313C255.418 31.6758 255.179 31.9203 254.99 32.2648C254.812 32.5983 254.723 33.0429 254.723 33.5986V38H252.439ZM267.857 38V26.0128H270.142V31.0811C270.408 30.5476 270.775 30.153 271.242 29.8974C271.709 29.6307 272.237 29.4973 272.826 29.4973C273.404 29.4973 273.915 29.6084 274.36 29.8307C274.815 30.053 275.171 30.392 275.427 30.8477C275.693 31.2923 275.827 31.8536 275.827 32.5316V38H273.543V33.1985C273.543 32.476 273.404 31.9814 273.126 31.7147C272.848 31.4368 272.492 31.2979 272.059 31.2979C271.736 31.2979 271.425 31.3757 271.125 31.5313C270.836 31.6758 270.597 31.9203 270.408 32.2648C270.23 32.5983 270.142 33.0429 270.142 33.5986V38H267.857ZM282.048 38.1667C281.17 38.1667 280.403 37.9944 279.747 37.6499C279.102 37.3053 278.602 36.8107 278.246 36.1661C277.891 35.5214 277.713 34.7434 277.713 33.832C277.713 32.9206 277.891 32.1426 278.246 31.4979C278.602 30.8533 279.097 30.3587 279.73 30.0141C280.375 29.6696 281.109 29.4973 281.931 29.4973C282.776 29.4973 283.493 29.6696 284.082 30.0141C284.671 30.3476 285.121 30.8088 285.432 31.3979C285.743 31.9759 285.899 32.6372 285.899 33.3819C285.899 33.6041 285.893 33.8153 285.882 34.0154C285.871 34.2155 285.854 34.3933 285.832 34.5489H279.18V32.9651H284.832L283.732 33.3652C283.732 32.665 283.57 32.1259 283.248 31.748C282.937 31.3701 282.492 31.1812 281.914 31.1812C281.492 31.1812 281.125 31.2812 280.814 31.4812C280.514 31.6813 280.286 31.9814 280.13 32.3815C279.975 32.7705 279.897 33.2652 279.897 33.8653C279.897 34.4544 279.98 34.9435 280.147 35.3325C280.325 35.7104 280.569 35.9938 280.881 36.1828C281.203 36.3717 281.586 36.4662 282.031 36.4662C282.52 36.4662 282.915 36.3717 283.215 36.1828C283.515 35.9938 283.748 35.7326 283.915 35.3992L285.732 36.0994C285.554 36.5329 285.282 36.9052 284.915 37.2164C284.56 37.5276 284.132 37.7666 283.632 37.9333C283.142 38.0889 282.615 38.1667 282.048 38.1667ZM287.835 38V29.664H289.819L289.969 31.2979C290.191 30.7199 290.513 30.2753 290.936 29.9641C291.369 29.6529 291.908 29.4973 292.553 29.4973C292.742 29.4973 292.914 29.514 293.07 29.5473C293.225 29.5806 293.353 29.6251 293.453 29.6807L293.186 31.598C293.075 31.5535 292.936 31.5201 292.769 31.4979C292.614 31.4757 292.408 31.4646 292.153 31.4646C291.819 31.4646 291.497 31.5479 291.186 31.7147C290.874 31.8703 290.619 32.1148 290.419 32.4482C290.219 32.7705 290.119 33.1818 290.119 33.682V38H287.835ZM298.506 29.4973C299.351 29.4973 300.09 29.6696 300.724 30.0141C301.369 30.3587 301.869 30.8533 302.224 31.4979C302.591 32.1426 302.775 32.9206 302.775 33.832C302.775 34.7323 302.591 35.5103 302.224 36.1661C301.869 36.8107 301.369 37.3053 300.724 37.6499C300.09 37.9944 299.351 38.1667 298.506 38.1667C297.673 38.1667 296.934 37.9944 296.289 37.6499C295.644 37.3053 295.139 36.8107 294.772 36.1661C294.416 35.5103 294.238 34.7323 294.238 33.832C294.238 32.9206 294.416 32.1426 294.772 31.4979C295.139 30.8533 295.644 30.3587 296.289 30.0141C296.934 29.6696 297.673 29.4973 298.506 29.4973ZM298.506 31.1978C298.084 31.1978 297.723 31.2979 297.423 31.4979C297.134 31.6869 296.912 31.9758 296.756 32.3649C296.6 32.7539 296.523 33.2429 296.523 33.832C296.523 34.4211 296.6 34.9101 296.756 35.2991C296.912 35.6881 297.134 35.9827 297.423 36.1828C297.723 36.3717 298.084 36.4662 298.506 36.4662C298.918 36.4662 299.268 36.3717 299.557 36.1828C299.857 35.9827 300.085 35.6881 300.24 35.2991C300.396 34.9101 300.474 34.4211 300.474 33.832C300.474 33.2429 300.396 32.7539 300.24 32.3649C300.085 31.9758 299.857 31.6869 299.557 31.4979C299.268 31.2979 298.918 31.1978 298.506 31.1978ZM308.02 38.1667C307.175 38.1667 306.403 38.0167 305.703 37.7166C305.014 37.4165 304.452 36.9941 304.019 36.4495L305.336 35.1157C305.603 35.5159 305.958 35.8438 306.403 36.0994C306.847 36.355 307.375 36.4828 307.987 36.4828C308.42 36.4828 308.765 36.4217 309.02 36.2995C309.287 36.1661 309.421 35.9605 309.421 35.6826C309.421 35.5048 309.359 35.3547 309.237 35.2324C309.115 35.0991 308.87 34.9935 308.504 34.9157L307.036 34.6156C306.069 34.4155 305.38 34.1154 304.969 33.7153C304.569 33.3041 304.369 32.7761 304.369 32.1315C304.369 31.6758 304.502 31.2478 304.769 30.8477C305.047 30.4476 305.458 30.1253 306.003 29.8807C306.547 29.6251 307.225 29.4973 308.037 29.4973C308.87 29.4973 309.593 29.6307 310.204 29.8974C310.827 30.153 311.316 30.5365 311.671 31.0478L310.304 32.3815C310.06 31.9925 309.737 31.698 309.337 31.4979C308.948 31.2867 308.537 31.1812 308.103 31.1812C307.792 31.1812 307.525 31.2145 307.303 31.2812C307.081 31.3479 306.914 31.4423 306.803 31.5646C306.692 31.6758 306.636 31.8202 306.636 31.9981C306.636 32.1759 306.714 32.3315 306.87 32.4649C307.025 32.5872 307.309 32.6927 307.72 32.7817L309.421 33.1318C310.243 33.2985 310.832 33.5819 311.188 33.982C311.543 34.3711 311.721 34.8434 311.721 35.3992C311.721 35.9327 311.577 36.4106 311.288 36.833C311.01 37.2442 310.593 37.5721 310.037 37.8166C309.493 38.05 308.82 38.1667 308.02 38.1667Z" fill="#404040"/>
</svg>
